<svg id="svg" xmlns="http://www.w3.org/2000/svg" xmlns:xlink="http://www.w3.org/1999/xlink" width="400" height="400" viewBox="0, 0, 400,400" version="1.1"><g id="svgg"><path id="path0" d="M118.579 141.248 C 111.288 143.907,105.172 146.235,104.987 146.420 C 104.798 146.608,106.207 148.178,108.184 149.983 C 112.487 153.911,112.490 153.378,108.140 158.490 C 92.041 177.405,72.841 192.395,49.219 204.489 C 35.930 211.293,38.654 213.374,54.033 208.168 C 74.511 201.235,93.592 188.806,112.274 170.232 C 122.157 160.407,120.808 161.140,123.911 163.917 C 127.095 166.766,128.068 167.401,128.536 166.932 C 129.367 166.102,132.874 136.262,132.129 136.371 C 131.968 136.394,125.871 138.589,118.579 141.248 M105.469 212.109 L 105.469 244.156 114.160 244.050 L 122.852 243.945 122.852 212.109 L 122.852 180.273 114.160 180.168 L 105.469 180.063 105.469 212.109 M136.198 181.510 C 136.055 181.654,135.938 183.236,135.938 185.026 L 135.938 188.281 140.593 188.281 C 143.154 188.281,145.527 188.388,145.866 188.518 C 146.417 188.729,146.484 190.594,146.484 205.524 L 146.484 222.293 150.488 222.182 L 154.492 222.070 154.688 205.273 L 154.883 188.477 159.863 188.367 L 164.844 188.258 164.844 184.754 L 164.844 181.250 150.651 181.250 C 142.845 181.250,136.341 181.367,136.198 181.510 M235.156 188.281 C 235.156 192.148,235.015 195.313,234.842 195.313 C 234.668 195.313,233.921 194.854,233.181 194.294 C 222.706 186.360,211.593 197.988,215.399 212.901 C 217.885 222.643,226.984 226.111,233.292 219.722 C 234.857 218.137,235.035 218.227,235.239 220.703 L 235.352 222.070 238.965 222.183 L 242.578 222.295 242.578 201.772 L 242.578 181.250 238.867 181.250 L 235.156 181.250 235.156 188.281 M278.308 182.137 C 278.185 182.625,278.138 184.251,278.203 185.750 L 278.320 188.477 287.207 188.582 C 292.095 188.639,296.094 188.788,296.094 188.911 C 296.094 189.035,292.007 194.658,287.012 201.407 C 276.783 215.227,277.160 214.528,277.531 218.978 L 277.805 222.266 291.051 222.266 L 304.297 222.266 304.297 218.750 L 304.297 215.234 295.284 215.234 C 287.574 215.234,286.289 215.152,286.397 214.663 C 286.467 214.348,290.039 209.337,294.336 203.528 C 305.848 187.963,304.688 189.906,304.682 186.188 C 304.679 184.439,304.571 182.612,304.441 182.129 L 304.206 181.250 291.368 181.250 L 278.531 181.250 278.308 182.137 M179.102 191.760 C 177.266 192.217,176.370 192.819,174.698 194.719 C 172.761 196.919,172.802 196.927,172.478 194.336 L 172.209 192.188 168.963 192.188 C 166.195 192.188,165.691 192.288,165.547 192.871 C 165.406 193.445,165.427 210.568,165.580 219.643 L 165.625 222.294 169.434 222.182 L 173.242 222.070 173.438 213.086 C 173.696 201.183,174.500 199.722,180.921 199.478 L 182.617 199.414 182.617 195.508 L 182.617 191.602 181.445 191.535 C 180.801 191.499,179.746 191.600,179.102 191.760 M352.664 191.951 C 350.889 192.429,348.954 193.639,346.804 195.616 L 345.756 196.580 345.508 195.067 C 345.372 194.235,345.226 193.291,345.184 192.969 C 345.125 192.508,344.377 192.359,341.695 192.270 L 338.281 192.157 338.281 207.225 L 338.281 222.294 342.090 222.182 L 345.898 222.070 346.094 212.891 C 346.330 201.798,346.958 200.156,351.482 198.808 C 355.731 197.543,356.398 199.301,356.567 212.207 L 356.699 222.266 360.576 222.266 L 364.453 222.266 364.451 210.059 C 364.450 203.012,364.281 197.249,364.053 196.425 C 362.996 192.622,357.781 190.573,352.664 191.951 M192.923 192.317 C 189.534 193.574,187.573 195.462,186.501 198.501 C 185.429 201.538,185.745 201.788,191.691 202.610 L 193.343 202.838 194.109 201.051 C 195.933 196.795,203.643 197.106,202.568 201.392 C 202.251 202.653,201.482 202.996,196.497 204.099 C 188.734 205.816,186.402 207.404,185.538 211.564 C 183.637 220.725,193.064 226.355,201.171 220.899 L 203.118 219.589 203.438 220.830 L 203.759 222.070 207.398 222.183 L 211.037 222.296 210.735 221.402 C 210.569 220.910,210.327 215.234,210.197 208.789 C 209.927 195.375,209.910 195.304,206.458 193.169 C 204.213 191.780,195.799 191.251,192.923 192.317 M255.466 192.162 C 243.803 195.710,243.353 217.527,254.854 221.831 C 261.052 224.150,268.266 222.744,272.414 218.410 C 273.796 216.965,273.631 216.451,271.210 214.676 C 268.882 212.968,268.646 212.965,266.931 214.631 C 262.994 218.454,257.404 217.516,254.929 212.617 C 253.745 210.274,253.713 210.289,260.449 210.037 C 265.980 209.830,274.065 208.878,274.568 208.375 C 275.676 207.267,272.833 198.021,270.607 195.492 C 267.708 192.198,260.534 190.620,255.466 192.162 M314.617 192.729 C 304.624 197.382,304.303 216.292,314.131 221.316 C 319.797 224.212,327.376 223.211,331.938 218.965 L 334.149 216.907 332.605 215.493 C 329.985 213.093,329.176 212.947,327.398 214.553 C 323.246 218.304,318.002 217.550,315.608 212.857 C 314.273 210.241,314.176 210.292,320.996 210.037 C 327.103 209.808,334.200 208.925,334.808 208.317 C 335.704 207.421,333.805 199.734,331.964 196.807 C 328.958 192.027,320.429 190.022,314.617 192.729 M263.196 198.254 C 264.906 198.938,265.873 200.339,266.246 202.672 L 266.506 204.297 264.405 204.278 C 261.276 204.250,254.720 203.679,254.453 203.411 C 253.951 202.909,255.206 200.334,256.379 199.460 C 258.778 197.672,260.833 197.308,263.196 198.254 M324.576 198.734 C 325.753 199.601,327.212 203.413,326.600 204.025 C 326.187 204.438,315.473 203.884,315.014 203.426 C 314.590 203.002,315.600 200.550,316.576 199.634 C 318.693 197.645,322.513 197.215,324.576 198.734 M231.578 199.126 C 236.822 201.561,236.376 213.049,230.935 215.683 C 226.305 217.924,222.651 214.031,222.660 206.864 C 222.669 199.710,226.213 196.634,231.578 199.126 M82.992 198.926 C 82.889 199.194,82.851 209.434,82.906 221.680 L 83.008 243.945 91.309 244.051 L 99.609 244.156 99.609 221.297 L 99.609 198.438 91.394 198.438 C 85.182 198.438,83.133 198.557,82.992 198.926 M202.728 210.254 C 202.711 215.787,195.752 219.875,193.562 215.639 C 192.027 212.671,193.303 210.968,198.242 209.395 C 202.955 207.895,202.735 207.853,202.728 210.254 M61.589 211.198 C 61.445 211.341,61.328 218.812,61.328 227.799 L 61.328 244.141 69.336 244.141 L 77.344 244.141 77.344 227.539 L 77.344 210.938 69.596 210.938 C 65.335 210.938,61.732 211.055,61.589 211.198 M39.844 232.227 L 39.844 244.141 47.852 244.141 L 55.859 244.141 55.859 232.227 L 55.859 220.313 47.852 220.313 L 39.844 220.313 39.844 232.227 " stroke="none" fill="#1e71be" fill-rule="evenodd"></path><path id="path1" d="M0.000 200.000 L 0.000 400.000 200.000 400.000 L 400.000 400.000 400.000 200.000 L 400.000 0.000 200.000 0.000 L 0.000 0.000 0.000 200.000 M132.422 137.380 C 132.422 138.433,130.553 154.247,129.479 162.285 C 128.684 168.231,128.720 168.220,123.911 163.917 C 120.808 161.140,122.157 160.407,112.274 170.232 C 93.592 188.806,74.511 201.235,54.033 208.168 C 38.654 213.374,35.930 211.293,49.219 204.489 C 72.841 192.395,92.041 177.405,108.140 158.490 C 112.490 153.378,112.487 153.911,108.184 149.983 C 106.207 148.178,104.798 146.608,104.987 146.420 C 105.276 146.131,131.320 136.488,132.129 136.371 C 132.290 136.347,132.422 136.801,132.422 137.380 M122.852 212.109 L 122.852 243.945 114.160 244.050 L 105.469 244.156 105.469 212.109 L 105.469 180.063 114.160 180.168 L 122.852 180.273 122.852 212.109 M164.844 184.754 L 164.844 188.258 159.863 188.367 L 154.883 188.477 154.688 205.273 L 154.492 222.070 150.488 222.182 L 146.484 222.293 146.484 205.524 C 146.484 190.594,146.417 188.729,145.866 188.518 C 145.527 188.388,143.154 188.281,140.593 188.281 L 135.938 188.281 135.938 185.026 C 135.938 183.236,136.055 181.654,136.198 181.510 C 136.341 181.367,142.845 181.250,150.651 181.250 L 164.844 181.250 164.844 184.754 M242.578 201.772 L 242.578 222.295 238.965 222.183 L 235.352 222.070 235.239 220.703 C 235.035 218.227,234.857 218.137,233.292 219.722 C 226.984 226.111,217.885 222.643,215.399 212.901 C 211.593 197.988,222.706 186.360,233.181 194.294 C 233.921 194.854,234.668 195.313,234.842 195.313 C 235.015 195.313,235.156 192.148,235.156 188.281 L 235.156 181.250 238.867 181.250 L 242.578 181.250 242.578 201.772 M304.441 182.129 C 304.571 182.612,304.679 184.439,304.682 186.188 C 304.688 189.906,305.848 187.963,294.336 203.528 C 290.039 209.337,286.467 214.348,286.397 214.663 C 286.289 215.152,287.574 215.234,295.284 215.234 L 304.297 215.234 304.297 218.750 L 304.297 222.266 291.051 222.266 L 277.805 222.266 277.531 218.978 C 277.160 214.528,276.783 215.227,287.012 201.407 C 292.007 194.658,296.094 189.035,296.094 188.911 C 296.094 188.788,292.095 188.639,287.207 188.582 L 278.320 188.477 278.203 185.750 C 278.138 184.251,278.185 182.625,278.308 182.137 L 278.531 181.250 291.368 181.250 L 304.206 181.250 304.441 182.129 M182.617 195.508 L 182.617 199.414 180.921 199.478 C 174.500 199.722,173.696 201.183,173.438 213.086 L 173.242 222.070 169.434 222.182 L 165.625 222.294 165.580 219.643 C 165.427 210.568,165.406 193.445,165.547 192.871 C 165.691 192.288,166.195 192.188,168.963 192.188 L 172.209 192.188 172.478 194.336 C 172.802 196.927,172.761 196.919,174.698 194.719 C 176.843 192.282,178.750 191.382,181.445 191.535 L 182.617 191.602 182.617 195.508 M358.620 191.839 C 363.965 192.985,364.448 194.496,364.451 210.059 L 364.453 222.266 360.576 222.266 L 356.699 222.266 356.567 212.207 C 356.398 199.301,355.731 197.543,351.482 198.808 C 346.958 200.156,346.330 201.798,346.094 212.891 L 345.898 222.070 342.090 222.182 L 338.281 222.294 338.281 207.225 L 338.281 192.157 341.695 192.270 C 344.377 192.359,345.125 192.508,345.184 192.969 C 345.226 193.291,345.372 194.235,345.508 195.067 L 345.756 196.580 346.804 195.616 C 350.858 191.889,354.068 190.863,358.620 191.839 M206.458 193.169 C 209.910 195.304,209.927 195.375,210.197 208.789 C 210.327 215.234,210.569 220.910,210.735 221.402 L 211.037 222.296 207.398 222.183 L 203.759 222.070 203.438 220.830 L 203.118 219.589 201.171 220.899 C 193.064 226.355,183.637 220.725,185.538 211.564 C 186.402 207.404,188.734 205.816,196.497 204.099 C 201.482 202.996,202.251 202.653,202.568 201.392 C 203.643 197.106,195.933 196.795,194.109 201.051 L 193.343 202.838 191.691 202.610 C 185.745 201.788,185.429 201.538,186.501 198.501 C 188.279 193.461,191.648 191.741,199.446 191.893 C 204.365 191.988,204.626 192.036,206.458 193.169 M267.007 192.721 C 269.465 193.865,271.993 196.686,273.019 199.429 C 273.806 201.533,274.928 208.015,274.568 208.375 C 274.065 208.878,265.980 209.830,260.449 210.037 C 253.713 210.289,253.745 210.274,254.929 212.617 C 257.404 217.516,262.994 218.454,266.931 214.631 C 268.646 212.965,268.882 212.968,271.210 214.676 C 273.631 216.451,273.796 216.965,272.414 218.410 C 268.266 222.744,261.052 224.150,254.854 221.831 C 243.353 217.527,243.803 195.710,255.466 192.162 C 257.892 191.424,264.956 191.766,267.007 192.721 M326.598 192.332 C 329.769 193.466,332.452 196.568,333.737 200.586 C 334.550 203.129,335.212 207.913,334.808 208.317 C 334.200 208.925,327.103 209.808,320.996 210.037 C 314.176 210.292,314.273 210.241,315.608 212.857 C 318.002 217.550,323.246 218.304,327.398 214.553 C 329.176 212.947,329.985 213.093,332.605 215.493 L 334.149 216.907 331.938 218.965 C 327.376 223.211,319.797 224.212,314.131 221.316 C 304.303 216.292,304.624 197.382,314.617 192.729 C 316.933 191.650,324.032 191.415,326.598 192.332 M258.789 198.128 C 256.234 199.021,253.452 202.410,254.453 203.411 C 254.720 203.679,261.276 204.250,264.405 204.278 L 266.506 204.297 266.246 202.672 C 265.615 198.726,262.504 196.829,258.789 198.128 M319.006 198.206 C 316.578 199.104,314.028 202.439,315.014 203.426 C 315.473 203.884,326.187 204.438,326.600 204.025 C 327.212 203.413,325.753 199.601,324.576 198.734 C 323.235 197.746,320.858 197.521,319.006 198.206 M226.830 198.440 C 220.588 200.337,221.432 215.232,227.840 216.272 C 232.380 217.009,235.482 212.413,235.093 205.525 C 234.812 200.548,230.908 197.201,226.830 198.440 M99.609 221.297 L 99.609 244.156 91.309 244.051 L 83.008 243.945 82.906 221.680 C 82.851 209.434,82.889 199.194,82.992 198.926 C 83.133 198.557,85.182 198.438,91.394 198.438 L 99.609 198.438 99.609 221.297 M198.242 209.395 C 193.303 210.968,192.027 212.671,193.562 215.639 C 195.752 219.875,202.711 215.787,202.728 210.254 C 202.735 207.853,202.955 207.895,198.242 209.395 M77.344 227.539 L 77.344 244.141 69.336 244.141 L 61.328 244.141 61.328 227.799 C 61.328 218.812,61.445 211.341,61.589 211.198 C 61.732 211.055,65.335 210.938,69.596 210.938 L 77.344 210.938 77.344 227.539 M55.859 232.227 L 55.859 244.141 47.852 244.141 L 39.844 244.141 39.844 232.227 L 39.844 220.313 47.852 220.313 L 55.859 220.313 55.859 232.227 " stroke="none" fill="#fbfbfb" fill-rule="evenodd"></path></g></svg>